<svg width="532" height="532" viewBox="0 0 532 532" fill="none" xmlns="http://www.w3.org/2000/svg">
<mask id="mask0_5258_12296" style="mask-type:luminance" maskUnits="userSpaceOnUse" x="32" y="15" width="431" height="503">
<path d="M197.053 395.597V387.287H220.654C219.342 412.761 213.009 432.968 201.724 447.437C189.127 463.603 170.547 471.79 146.491 471.79C122.434 471.79 103.854 463.585 91.2573 447.437C79.9902 432.985 73.6393 412.778 72.3272 387.287H96.2086V395.597C96.2086 438.164 123.624 447.104 146.613 447.104C188.287 447.104 197.018 419.094 197.018 395.597M208.442 454.207C221.162 437.867 228.265 415.367 229.612 387.287H236.68V397.207C236.68 413.443 238.447 428.122 241.929 441.278C237.485 454.68 231.046 466.174 222.614 475.657C204.961 495.497 178.98 505.539 145.388 505.539C111.797 505.539 85.7812 495.497 68.1633 475.657C50.4403 455.747 41.4651 426.949 41.4651 390.139V387.305H63.387C64.7516 415.402 71.8373 437.884 84.5565 454.225C98.9379 472.648 119.775 481.99 146.491 481.99C173.206 481.99 194.061 472.648 208.425 454.225M107.633 395.597V309.624C107.721 278.36 120.702 262.702 146.613 262.702C172.524 262.702 185.611 278.447 185.611 309.904V311.986H185.628V395.597C185.628 423.923 173.241 437.132 146.631 437.132C120.02 437.132 107.633 423.923 107.633 395.597ZM107.633 144.362C107.633 122.492 111.08 107.219 117.903 98.5411C124.744 89.8808 135.241 85.5594 149.36 85.5594C175.358 85.5594 188.357 101.288 188.357 132.762V146.426H236.715V218.735C222.701 202.464 202.931 194.312 177.405 194.312C145.021 194.312 122.224 208.22 109.015 236.056H107.633V144.379V144.362ZM274.435 153.372C274.435 123.07 280.856 99.4158 293.54 83.0925C306.085 66.9267 324.577 58.7388 348.529 58.7388C372.48 58.7388 390.973 66.9267 403.517 83.0925C416.202 99.4158 422.622 123.07 422.622 153.372V222.042H399.808V134.932C399.808 92.3652 372.603 83.4425 349.771 83.4425C308.429 83.4425 299.751 111.435 299.751 134.932L299.699 222.042H274.453V153.372H274.435ZM246.145 146.409H259.494V137.539C259.494 119.676 257.43 103.755 253.388 89.7233C257.815 76.1293 264.27 64.4773 272.756 54.8898C290.339 35.0673 316.197 25.0074 349.649 25.0074C383.1 25.0074 408.993 35.0673 426.541 54.8898C444.177 74.8172 453.117 103.597 453.117 140.425L453.082 222.059H431.528V153.39C431.528 120.515 424.354 94.5871 410.201 76.3393C395.889 57.9165 375.14 48.5739 348.529 48.5739C321.918 48.5739 301.186 57.9165 286.857 76.3393C272.703 94.5871 265.53 120.515 265.53 153.39V222.059H246.145V146.426V146.409ZM265.845 48.084C258.759 56.097 252.951 65.3696 248.437 75.8144C243.923 65.3346 238.027 56.132 230.749 48.259C211.591 27.5093 183.791 17.1344 147.295 17.1344C70.7001 17.1344 32.3849 58.6163 32.3849 141.598V307.857H32V390.104C32 429.539 41.8325 460.593 61.2525 482.428C80.7425 504.35 109.068 515.459 145.406 515.459C181.744 515.459 210.052 504.35 229.559 482.428C236.505 474.607 242.191 465.614 246.67 455.485C251.376 467.172 257.745 477.389 265.793 486.102C285.178 507.079 313.135 517.576 349.666 517.576C386.197 517.576 414.172 507.061 433.557 486.102C452.942 465.125 462.652 435.487 462.652 397.19V357.72H388.226V401.966C388.226 433.423 375.384 449.151 349.666 449.151C323.948 449.151 311.123 433.423 311.123 401.966V222.024H311.071V134.914C311.071 106.572 323.37 93.3624 349.771 93.3624C376.172 93.3624 388.489 106.554 388.489 134.914V222.024H388.244V300.317H462.67V222.024H462.565V140.39C462.565 100.955 452.767 69.8834 433.435 48.049C414.015 26.1271 385.829 15 349.649 15C313.468 15 285.3 26.1271 265.863 48.049" fill="white"/>
</mask>
<g mask="url(#mask0_5258_12296)">
<path d="M273.724 -198.679L-217.371 235.5L220.945 731.275L712.04 297.096L273.724 -198.679Z" fill="url(#paint0_linear_5258_12296)"/>
</g>
<mask id="mask1_5258_12296" style="mask-type:luminance" maskUnits="userSpaceOnUse" x="334" y="312" width="29" height="34">
<path d="M357.994 312.617L348.721 325.931L339.448 312.617H334.532L346.604 329.938V345.386H350.838V329.938L362.91 312.617H357.994Z" fill="white"/>
</mask>
<g mask="url(#mask1_5258_12296)">
<path d="M350.462 298.508L318.271 326.969L346.986 359.449L379.178 330.988L350.462 298.508Z" fill="url(#paint1_linear_5258_12296)"/>
</g>
<mask id="mask2_5258_12296" style="mask-type:luminance" maskUnits="userSpaceOnUse" x="373" y="312" width="22" height="34">
<path d="M373.617 312.619V345.388H394.682C394.542 344.321 394.542 342.816 394.682 341.732H377.834V329.975H393.142C393.002 328.89 393.002 327.298 393.142 326.231H377.834V316.258H394.157C394.017 315.191 394.017 313.686 394.157 312.602H373.617V312.619Z" fill="white"/>
</mask>
<g mask="url(#mask2_5258_12296)">
<path d="M385.446 302.143L357.356 326.977L382.862 355.826L410.952 330.992L385.446 302.143Z" fill="url(#paint2_linear_5258_12296)"/>
</g>
<mask id="mask3_5258_12296" style="mask-type:luminance" maskUnits="userSpaceOnUse" x="402" y="312" width="31" height="34">
<path d="M417.67 317.271L423.111 332.16H412.212L417.688 317.271H417.67ZM415.291 312.617L402.852 345.386H407.383L410.899 335.781H424.476L427.993 345.386H432.489L420.085 312.617H415.308H415.291Z" fill="white"/>
</mask>
<g mask="url(#mask3_5258_12296)">
<path d="M419.48 297.882L386.58 326.969L415.841 360.065L448.74 330.978L419.48 297.882Z" fill="url(#paint3_linear_5258_12296)"/>
</g>
<mask id="mask4_5258_12296" style="mask-type:luminance" maskUnits="userSpaceOnUse" x="442" y="312" width="26" height="34">
<path d="M446.941 316.361H455.129C459.66 316.361 462.092 318.286 462.092 321.785C462.092 325.284 459.52 327.313 455.251 327.313H446.923V316.361H446.941ZM442.724 312.617V345.386H446.941V331.11H454.097C457.736 331.11 459.328 332.44 460.36 335.921L462.634 343.707L463.124 345.386H467.516L464.419 335.134C463.947 333.577 463.352 332.335 462.617 331.407C461.847 330.41 460.937 329.78 459.87 329.43C460.885 329.133 461.795 328.731 462.617 328.241C465.014 326.736 466.466 324.339 466.466 321.102C466.466 317.866 464.961 315.661 462.617 314.244C460.85 313.177 458.628 312.617 456.179 312.617H442.707H442.724Z" fill="white"/>
</mask>
<g mask="url(#mask4_5258_12296)">
<path d="M456.641 300.281L426.455 326.969L453.606 357.679L483.793 330.992L456.641 300.281Z" fill="url(#paint4_linear_5258_12296)"/>
</g>
<mask id="mask5_5258_12296" style="mask-type:luminance" maskUnits="userSpaceOnUse" x="477" y="312" width="24" height="34">
<path d="M478.083 321.141C478.083 325.725 480.655 328.402 486.499 329.801L490.015 330.641C494.477 331.708 496.139 333.213 496.139 336.205C496.139 339.669 493.287 342.153 489.228 342.153C485.169 342.153 482.212 340.229 481.547 336.765L477.331 337.517C478.311 342.713 483 345.845 489.263 345.845C495.526 345.845 500.46 341.681 500.46 335.925C500.46 331.061 497.503 328.104 491.048 326.617L487.583 325.83C483.699 324.938 482.3 323.678 482.3 321.106C482.3 318.009 484.907 315.857 488.616 315.857C492.325 315.857 494.844 317.782 495.544 320.861L499.76 320.109C498.868 315.385 494.389 312.148 488.616 312.148C482.842 312.148 478.083 315.945 478.083 321.141Z" fill="white"/>
</mask>
<g mask="url(#mask5_5258_12296)">
<path d="M490.297 300.678L460.596 326.938L487.469 357.334L517.17 331.074L490.297 300.678Z" fill="url(#paint5_linear_5258_12296)"/>
</g>
<defs>
<linearGradient id="paint0_linear_5258_12296" x1="-95.8864" y1="599.212" x2="478.546" y2="91.3543" gradientUnits="userSpaceOnUse">
<stop stop-color="#0D8C44"/>
<stop offset="1" stop-color="#C2D42F"/>
</linearGradient>
<linearGradient id="paint1_linear_5258_12296" x1="395960" y1="-349403" x2="396535" y2="-349910" gradientUnits="userSpaceOnUse">
<stop stop-color="#0D8C44"/>
<stop offset="1" stop-color="#C2D42F"/>
</linearGradient>
<linearGradient id="paint2_linear_5258_12296" x1="395975" y1="-349385" x2="396549" y2="-349892" gradientUnits="userSpaceOnUse">
<stop stop-color="#0D8C44"/>
<stop offset="1" stop-color="#C2D42F"/>
</linearGradient>
<linearGradient id="paint3_linear_5258_12296" x1="395994" y1="-349370" x2="396568" y2="-349878" gradientUnits="userSpaceOnUse">
<stop stop-color="#0D8C44"/>
<stop offset="1" stop-color="#C2D42F"/>
</linearGradient>
<linearGradient id="paint4_linear_5258_12296" x1="396012" y1="-349353" x2="396586" y2="-349860" gradientUnits="userSpaceOnUse">
<stop stop-color="#0D8C44"/>
<stop offset="1" stop-color="#C2D42F"/>
</linearGradient>
<linearGradient id="paint5_linear_5258_12296" x1="396034" y1="-349341" x2="396609" y2="-349848" gradientUnits="userSpaceOnUse">
<stop stop-color="#0D8C44"/>
<stop offset="1" stop-color="#C2D42F"/>
</linearGradient>
</defs>
</svg>
