<svg width="200" height="266" viewBox="0 0 200 266" fill="none" xmlns="http://www.w3.org/2000/svg">
<path fill-rule="evenodd" clip-rule="evenodd" d="M134.227 18.772C135.144 17.1489 137.756 12.7029 145.871 12.7029C149.4 12.7029 153.846 13.5498 157.092 17.2195C158.857 19.2661 161.256 22.7946 161.256 30.5575C161.256 37.4735 159.633 41.2138 157.869 43.5427C155.046 47.5653 150.317 49.6119 145.377 49.6119C143.754 49.6119 140.508 49.4002 137.473 47.3536C135.497 46.0127 134.721 44.813 134.015 43.7544L133.874 49.1179H127.452L127.593 42.7664V0H134.227V18.772ZM144.248 17.2195C134.086 17.2195 134.086 29.1461 134.086 31.4044C134.086 33.7332 134.086 44.813 144.036 44.813C152.223 44.813 154.269 36.8384 154.269 31.0515C154.269 27.5229 153.564 17.2195 144.248 17.2195Z" fill="#009900"/>
<path fill-rule="evenodd" clip-rule="evenodd" d="M166.337 19.4072C166.337 17.8546 166.267 17.0078 166.125 13.6203H172.9L173.042 19.4778C176.358 13.9026 182.216 13.0558 185.109 13.0558C192.731 13.0558 200 18.2781 200 31.4044C200 44.6718 192.308 50.4587 183.839 50.4587C178.687 50.4587 174.876 48.271 172.971 45.1659V62.8088H166.337V19.4072ZM182.71 45.5187C184.404 45.5187 187.932 45.1659 190.19 42.0607C192.731 38.6027 193.084 33.5215 193.084 30.9809C193.084 24.6295 191.178 17.9252 183.345 17.9252C172.759 17.9252 172.759 29.2167 172.759 32.3924C172.759 36.6973 173.394 45.5187 182.71 45.5187Z" fill="#009900"/>
<path d="M113.62 87.2971C108.61 75.4411 102.47 66.4079 99.9998 62.7382C97.6003 66.4079 91.39 75.4411 86.45 87.2971C91.3195 92.5194 96.1889 98.7297 99.9998 105.787C103.881 98.7297 108.68 92.5194 113.62 87.2971Z" fill="#009900"/>
<path d="M86.45 241.355C91.39 253.211 97.6003 262.244 99.9998 265.914C102.47 262.244 108.61 253.211 113.62 241.355C108.68 236.062 103.881 229.852 99.9998 222.865C96.1889 229.852 91.3195 236.062 86.45 241.355Z" fill="#009900"/>
<path d="M86.4502 87.2971C77.6993 77.8405 68.8073 71.4891 65.2787 68.8779C64.2201 73.1122 61.5384 83.698 60.9032 96.542C67.3252 99.8589 73.959 104.023 80.0281 109.315C81.2278 101.411 83.6273 93.8603 86.4502 87.2971Z" fill="#009900"/>
<path d="M113.62 241.355C122.301 250.812 131.193 257.163 134.721 259.774C135.78 255.469 138.462 244.884 139.097 232.11C132.745 228.793 126.041 224.63 120.042 219.337C118.843 227.241 116.373 234.721 113.62 241.355Z" fill="#009900"/>
<path d="M60.9032 96.542C49.4706 90.6846 38.9554 87.7206 34.7211 86.5209C35.2151 90.8963 36.2737 101.764 40.0845 114.044C47.2123 114.891 54.9046 116.584 62.3852 119.478C60.8326 111.644 60.5503 103.74 60.9032 96.542Z" fill="#009900"/>
<path d="M139.097 232.11C150.529 237.968 161.044 240.861 165.279 242.131C164.855 237.756 163.726 226.888 159.915 214.608C152.788 213.691 145.095 212.068 137.615 209.104C139.238 217.008 139.52 224.912 139.097 232.11Z" fill="#009900"/>
<path d="M49.3294 135.074C45.1656 128.229 42.2016 120.889 40.0845 114.044C27.311 112.421 16.443 113.267 12.0675 113.55C13.973 117.502 18.7719 127.311 26.4642 137.544C33.5213 135.921 41.2842 134.862 49.3294 135.074Z" fill="#009900"/>
<path d="M150.67 193.578C154.834 200.423 157.869 207.763 159.915 214.608C172.689 216.232 183.557 215.385 188.003 215.102C186.027 211.15 181.298 201.341 173.536 191.108C166.549 192.661 158.716 193.79 150.67 193.578Z" fill="#009900"/>
<path d="M26.4643 137.544C13.9731 140.438 4.02249 144.884 -9.15527e-05 146.648C3.17563 149.682 11.0091 157.375 21.8065 164.291C27.8051 160.409 34.7917 156.74 42.4134 154.128C36.1326 149.118 30.8397 143.26 26.4643 137.544Z" fill="#009900"/>
<path d="M178.264 164.291C172.195 168.243 165.279 171.913 157.657 174.453C163.938 179.534 169.231 185.321 173.536 191.108C186.097 188.215 196.048 183.698 200 181.934C196.895 178.899 189.061 171.277 178.264 164.291Z" fill="#009900"/>
<path d="M42.4134 174.453C34.7917 171.913 27.8051 168.243 21.8065 164.291C11.0091 171.277 3.17563 178.899 -9.15527e-05 181.934C4.02249 183.698 13.9731 188.215 26.4643 191.108C30.8397 185.321 36.1326 179.534 42.4134 174.453Z" fill="#009900"/>
<path d="M157.657 154.128C165.279 156.74 172.195 160.409 178.264 164.291C189.061 157.375 196.895 149.682 200 146.648C196.048 144.884 186.097 140.438 173.536 137.544C169.231 143.26 163.938 149.118 157.657 154.128Z" fill="#009900"/>
<path d="M26.4642 191.108C18.7719 201.341 13.973 211.15 12.0675 215.102C16.443 215.385 27.311 216.232 40.0845 214.608C42.2016 207.763 45.1656 200.423 49.3294 193.578C41.2842 193.79 33.5213 192.661 26.4642 191.108Z" fill="#009900"/>
<path d="M173.536 137.544C181.298 127.311 186.027 117.502 188.003 113.55C183.557 113.267 172.689 112.421 159.915 114.044C157.869 120.889 154.834 128.229 150.67 135.074C158.716 134.862 166.549 135.921 173.536 137.544Z" fill="#009900"/>
<path d="M62.3852 209.104C54.9046 212.068 47.2123 213.691 40.0845 214.608C36.2737 226.888 35.2151 237.756 34.7211 242.131C38.9554 240.861 49.4706 237.968 60.9032 232.11C60.5503 224.912 60.8326 217.008 62.3852 209.104Z" fill="#009900"/>
<path d="M137.615 119.478C145.095 116.584 152.788 114.891 159.915 114.044C163.726 101.764 164.855 90.8963 165.279 86.5209C161.044 87.7206 150.529 90.6846 139.097 96.542C139.52 103.74 139.238 111.574 137.615 119.478Z" fill="#009900"/>
<path d="M60.9032 232.11C61.5384 244.884 64.2201 255.469 65.2787 259.774C68.8073 257.163 77.6993 250.812 86.4502 241.355C83.6273 234.721 81.2278 227.241 80.0281 219.337C73.959 224.63 67.3252 228.793 60.9032 232.11Z" fill="#009900"/>
<path d="M139.097 96.542C138.462 83.698 135.78 73.1122 134.721 68.8779C131.193 71.4891 122.301 77.8405 113.62 87.2971C116.373 93.8603 118.843 101.411 120.042 109.315C126.041 104.023 132.745 99.8589 139.097 96.542Z" fill="#009900"/>
<path d="M93.0132 124.841C94.3541 117.996 96.8241 111.574 99.9998 105.787C96.189 98.7297 91.3195 92.5194 86.4501 87.2971C83.6272 93.8603 81.2277 101.411 80.028 109.315C84.968 113.691 89.4846 118.843 93.0132 124.841Z" fill="#99CC00"/>
<path d="M106.987 203.811C105.716 210.656 103.176 217.008 100 222.865C103.881 229.852 108.68 236.062 113.62 241.355C116.373 234.721 118.843 227.241 120.042 219.337C115.032 214.961 110.515 209.809 106.987 203.811Z" fill="#99CC00"/>
<path d="M62.3852 119.478C68.5249 121.877 74.5941 125.194 79.9575 129.57C78.8284 122.724 78.9695 115.879 80.0281 109.315C73.9589 104.023 67.3252 99.8589 60.9032 96.542C60.5503 103.74 60.8326 111.644 62.3852 119.478Z" fill="#99CC00"/>
<path d="M137.615 209.104C131.475 206.775 125.476 203.458 120.042 199.083C121.171 205.928 121.03 212.773 120.042 219.337C126.041 224.629 132.745 228.793 139.097 232.11C139.52 224.912 139.238 217.008 137.615 209.104Z" fill="#99CC00"/>
<path d="M69.3012 138.532C65.8432 132.463 63.726 125.97 62.3852 119.478C54.9046 116.584 47.2123 114.891 40.0846 114.044C42.2017 120.889 45.1657 128.229 49.3294 135.074C55.9632 135.215 62.7381 136.203 69.3012 138.532Z" fill="#99CC00"/>
<path d="M130.699 190.12C134.157 196.189 136.344 202.682 137.615 209.104C145.095 212.068 152.787 213.691 159.915 214.608C157.869 207.763 154.834 200.423 150.67 193.578C144.107 193.437 137.332 192.378 130.699 190.12Z" fill="#99CC00"/>
<path d="M42.4135 154.128C48.6238 152.011 55.3281 150.67 62.3147 150.6C57.0218 146.083 52.7875 140.72 49.3295 135.074C41.2843 134.862 33.5215 135.921 26.4643 137.544C30.8398 143.26 36.1326 149.118 42.4135 154.128Z" fill="#99CC00"/>
<path d="M157.657 174.453C151.376 176.57 144.672 177.982 137.685 178.052C142.978 182.569 147.283 187.932 150.67 193.578C158.715 193.79 166.549 192.661 173.535 191.108C169.231 185.321 163.938 179.534 157.657 174.453Z" fill="#99CC00"/>
<path d="M59.9153 164.291C53.3521 161.891 47.5652 158.292 42.4135 154.128C34.7918 156.74 27.8052 160.409 21.8066 164.291C27.8052 168.243 34.7918 171.912 42.4135 174.453C47.5652 170.36 53.3521 166.761 59.9153 164.291Z" fill="#99CC00"/>
<path d="M140.085 164.291C146.648 166.761 152.505 170.36 157.657 174.453C165.279 171.912 172.195 168.243 178.264 164.291C172.195 160.409 165.279 156.74 157.657 154.128C152.505 158.292 146.648 161.891 140.085 164.291Z" fill="#99CC00"/>
<path d="M49.3295 193.578C52.7875 187.932 57.0218 182.569 62.3147 178.052C55.3281 177.982 48.6238 176.641 42.4135 174.453C36.1326 179.534 30.8398 185.321 26.4643 191.108C33.5215 192.661 41.2843 193.79 49.3295 193.578Z" fill="#99CC00"/>
<path d="M150.67 135.074C147.283 140.72 142.978 146.083 137.685 150.6C144.672 150.67 151.376 152.011 157.657 154.128C163.938 149.118 169.231 143.26 173.535 137.544C166.549 135.921 158.715 134.862 150.67 135.074Z" fill="#99CC00"/>
<path d="M69.3012 190.12C62.7381 192.378 55.9632 193.437 49.3294 193.578C45.1657 200.423 42.2017 207.763 40.0846 214.608C47.2123 213.691 54.9046 212.068 62.3852 209.104C63.726 202.682 65.8432 196.189 69.3012 190.12Z" fill="#99CC00"/>
<path d="M130.699 138.532C137.332 136.203 144.107 135.215 150.67 135.074C154.834 128.229 157.869 120.889 159.915 114.044C152.787 114.891 145.095 116.584 137.615 119.478C136.344 125.97 134.157 132.463 130.699 138.532Z" fill="#99CC00"/>
<path d="M93.0132 203.811C89.4846 209.809 84.968 214.961 80.028 219.337C81.2277 227.241 83.6272 234.721 86.4501 241.355C91.3195 236.062 96.189 229.852 99.9998 222.865C96.8241 217.008 94.3541 210.656 93.0132 203.811Z" fill="#99CC00"/>
<path d="M79.9575 199.083C74.5941 203.458 68.5249 206.775 62.3852 209.104C60.8326 217.008 60.5503 224.912 60.9032 232.11C67.3252 228.793 73.9589 224.629 80.0281 219.337C78.9695 212.773 78.8284 205.928 79.9575 199.083Z" fill="#99CC00"/>
<path d="M106.987 124.841C110.515 118.843 115.032 113.691 120.042 109.315C118.843 101.411 116.373 93.8603 113.62 87.2971C108.68 92.5194 103.881 98.7297 100 105.787C103.176 111.574 105.716 117.996 106.987 124.841Z" fill="#99CC00"/>
<path d="M120.042 129.57C125.476 125.194 131.475 121.877 137.615 119.478C139.238 111.574 139.52 103.74 139.097 96.542C132.745 99.8589 126.041 104.023 120.042 109.315C121.03 115.879 121.171 122.724 120.042 129.57Z" fill="#99CC00"/>
<path d="M93.084 145.307C89.4848 138.885 84.9683 133.733 79.9577 129.57C81.0163 136.062 83.2745 142.484 87.0148 148.765C81.4397 144.037 75.4411 140.72 69.3014 138.532C72.4771 144.248 76.7819 149.541 82.4982 154.199C75.5822 151.588 68.8779 150.529 62.3148 150.6C67.2548 154.834 73.1122 158.363 80.0282 160.833C72.7594 160.692 66.055 162.033 59.9153 164.291C66.055 166.62 72.7594 167.961 80.0282 167.819C73.1122 170.289 67.2548 173.818 62.3148 178.052C68.8779 178.123 75.5822 177.064 82.4982 174.453C76.7819 179.111 72.4771 184.404 69.3014 190.12C75.4411 187.932 81.4397 184.615 87.0148 179.817C83.2745 186.168 81.0163 192.59 79.9577 199.083C84.9683 194.919 89.4848 189.767 93.084 183.345C91.7431 190.543 91.8843 197.389 93.0134 203.811C96.4009 198.165 98.8003 191.814 100 184.615C101.2 191.814 103.67 198.165 106.987 203.811C108.186 197.389 108.327 190.543 106.916 183.345C110.515 189.767 115.032 194.919 120.042 199.083C118.984 192.59 116.796 186.168 113.056 179.817C118.56 184.615 124.559 187.932 130.699 190.12C127.523 184.404 123.218 179.111 117.572 174.453C124.418 177.064 131.193 178.123 137.685 178.052C132.745 173.818 126.888 170.289 119.972 167.819C127.311 167.961 134.016 166.62 140.085 164.291C134.016 162.033 127.311 160.692 119.972 160.833C126.888 158.363 132.745 154.834 137.685 150.6C131.193 150.529 124.418 151.588 117.572 154.199C123.218 149.541 127.523 144.248 130.699 138.532C124.559 140.72 118.56 144.037 113.056 148.765C116.796 142.484 118.984 136.062 120.042 129.57C115.032 133.733 110.515 138.885 106.916 145.307C108.327 138.038 108.186 131.263 106.987 124.841C103.67 130.416 101.2 136.838 100 144.037C98.8003 136.838 96.4009 130.416 93.0134 124.841C91.8843 131.263 91.7431 138.038 93.084 145.307Z" fill="white"/>
<path d="M93.0841 145.307C91.7432 138.038 91.8844 131.263 93.0135 124.841C89.4849 118.843 84.9683 113.691 80.0283 109.316C78.9697 115.879 78.8286 122.724 79.9577 129.57C84.9683 133.733 89.4849 138.885 93.0841 145.307Z" fill="#FFFF00"/>
<path d="M106.916 183.345C108.327 190.543 108.186 197.389 106.987 203.811C110.515 209.81 115.032 214.961 120.042 219.337C121.03 212.774 121.171 205.928 120.042 199.083C115.032 194.919 110.515 189.767 106.916 183.345Z" fill="#FFFF00"/>
<path d="M79.9575 129.57C74.5941 125.194 68.5249 121.877 62.3852 119.478C63.726 125.97 65.8432 132.463 69.3012 138.532C75.4409 140.72 81.4395 144.037 87.0147 148.765C83.2744 142.484 81.0161 136.062 79.9575 129.57Z" fill="#FFFF00"/>
<path d="M120.042 199.083C125.476 203.458 131.475 206.775 137.615 209.104C136.344 202.682 134.157 196.189 130.699 190.12C124.559 187.932 118.56 184.615 113.056 179.817C116.796 186.168 118.984 192.59 120.042 199.083Z" fill="#FFFF00"/>
<path d="M82.4982 154.199C76.7819 149.541 72.477 144.248 69.3013 138.532C62.7381 136.203 55.9632 135.215 49.3295 135.074C52.7875 140.72 57.0218 146.083 62.3147 150.6C68.8779 150.529 75.5821 151.588 82.4982 154.199Z" fill="#FFFF00"/>
<path d="M117.572 174.453C123.218 179.111 127.523 184.404 130.699 190.12C137.332 192.378 144.107 193.437 150.67 193.578C147.283 187.932 142.978 182.569 137.685 178.052C131.193 178.123 124.418 177.064 117.572 174.453Z" fill="#FFFF00"/>
<path d="M80.0283 160.833C73.1123 158.363 67.2548 154.834 62.3148 150.6C55.3282 150.671 48.6239 152.011 42.4136 154.129C47.5653 158.292 53.3522 161.891 59.9154 164.291C66.0551 162.033 72.7594 160.692 80.0283 160.833Z" fill="#FFFF00"/>
<path d="M119.972 167.819C126.888 170.289 132.745 173.818 137.685 178.052C144.672 177.982 151.376 176.57 157.657 174.453C152.505 170.36 146.648 166.761 140.085 164.291C134.016 166.62 127.311 167.961 119.972 167.819Z" fill="#FFFF00"/>
<path d="M59.9154 164.291C53.3522 166.761 47.5653 170.36 42.4136 174.453C48.6239 176.641 55.3282 177.982 62.3148 178.052C67.2548 173.818 73.1123 170.289 80.0283 167.819C72.7594 167.961 66.0551 166.62 59.9154 164.291Z" fill="#FFFF00"/>
<path d="M140.085 164.291C146.648 161.891 152.505 158.292 157.657 154.129C151.376 152.011 144.672 150.671 137.685 150.6C132.745 154.834 126.888 158.363 119.972 160.833C127.311 160.692 134.016 162.033 140.085 164.291Z" fill="#FFFF00"/>
<path d="M82.4982 174.453C75.5821 177.064 68.8779 178.123 62.3147 178.052C57.0218 182.569 52.7875 187.932 49.3295 193.578C55.9632 193.437 62.7381 192.378 69.3013 190.12C72.477 184.404 76.7819 179.111 82.4982 174.453Z" fill="#FFFF00"/>
<path d="M117.572 154.199C124.418 151.588 131.193 150.529 137.685 150.6C142.978 146.083 147.283 140.72 150.67 135.074C144.107 135.215 137.332 136.203 130.699 138.532C127.523 144.248 123.218 149.541 117.572 154.199Z" fill="#FFFF00"/>
<path d="M93.0135 203.811C94.3543 210.656 96.8244 217.008 100 222.865C103.176 217.008 105.716 210.656 106.987 203.811C103.67 198.165 101.2 191.814 100 184.615C98.8004 191.814 96.4009 198.165 93.0135 203.811Z" fill="#FFFF00"/>
<path d="M93.0841 183.345C89.4849 189.767 84.9683 194.919 79.9577 199.083C78.8286 205.928 78.9697 212.774 80.0283 219.337C84.9683 214.961 89.4849 209.81 93.0135 203.811C91.8844 197.389 91.7432 190.543 93.0841 183.345Z" fill="#FFFF00"/>
<path d="M69.3012 190.12C65.8432 196.189 63.726 202.682 62.3852 209.104C68.5249 206.775 74.5941 203.458 79.9575 199.083C81.0161 192.59 83.2744 186.168 87.0147 179.817C81.4395 184.615 75.4409 187.932 69.3012 190.12Z" fill="#FFFF00"/>
<path d="M106.987 124.841C105.716 117.996 103.176 111.574 100 105.787C96.8244 111.574 94.3543 117.996 93.0135 124.841C96.4009 130.416 98.8004 136.838 100 144.037C101.2 136.838 103.67 130.416 106.987 124.841Z" fill="#FFFF00"/>
<path d="M106.916 145.307C110.515 138.885 115.032 133.733 120.042 129.57C121.171 122.724 121.03 115.879 120.042 109.316C115.032 113.691 110.515 118.843 106.987 124.841C108.186 131.263 108.327 138.038 106.916 145.307Z" fill="#FFFF00"/>
<path d="M130.699 138.532C134.157 132.463 136.344 125.97 137.615 119.478C131.475 121.877 125.476 125.194 120.042 129.57C118.984 136.062 116.796 142.484 113.056 148.765C118.56 144.037 124.559 140.72 130.699 138.532Z" fill="#FFFF00"/>
</svg>
