<svg xmlns="http://www.w3.org/2000/svg" width="250" height="248" fill="none"><g clip-path="url(#a)"><mask id="d" width="208" height="196" x="0" y="52" maskUnits="userSpaceOnUse" style="mask-type:alpha"><mask id="b" fill="#fff"><path d="M103.688 70.999c19.233 0 21.147 2.096 31.129 2.096 8.295 0 33.18-20.327 45.622-20.327 12.443 0 26.936 7.292 26.936 28.44v24.429c0 6.381-2.324 25.979-11.44 20.738 10.756 12.716 11.303 47.764 11.167 62.121-.639 5.652-2.097 10.802-4.285 15.496l-5.013 8.523-6.837 7.384c-22.469 21.102-62.85 27.938-87.279 27.938"/></mask><path fill="#000" d="M103.688 70.999c19.233 0 21.147 2.096 31.129 2.096 8.295 0 33.18-20.327 45.622-20.327 12.443 0 26.936 7.292 26.936 28.44v24.429c0 6.381-2.324 25.979-11.44 20.738 10.756 12.716 11.303 47.764 11.167 62.121-.639 5.652-2.097 10.802-4.285 15.496l-5.013 8.523-6.837 7.384c-22.469 21.102-62.85 27.938-87.279 27.938"/><path fill="#000" d="m195.935 126.375 10.468-18.205-26.501 31.767 16.033-13.562Zm11.167 62.121 20.867 2.356.121-1.075.011-1.081-20.999-.2Zm-4.285 15.496 18.101 10.648.509-.866.425-.911-19.035-8.871Zm-5.013 8.523 15.409 14.268 1.541-1.665 1.15-1.955-18.1-10.648Zm-6.837 7.384 14.376 15.307.535-.502.498-.538-15.409-14.267Zm-87.279-127.9c8.692 0 13.095.463 16.39.881 3.503.445 8.089 1.215 14.739 1.215v-42c-3.332 0-4.694-.277-9.452-.88-4.966-.631-11.137-1.216-21.677-1.216v42Zm31.129 2.096c4.766 0 8.839-1.333 11.134-2.184 2.63-.975 5.177-2.197 7.372-3.329 4.269-2.203 9.242-5.153 13.239-7.458 4.399-2.536 8.144-4.609 11.322-6.047 3.752-1.697 4.183-1.309 2.555-1.309v-42c-7.849 0-15.194 2.93-19.867 5.043-5.247 2.374-10.575 5.383-14.989 7.928-4.816 2.777-8.398 4.909-11.516 6.518-1.499.773-2.354 1.14-2.722 1.276-.702.26.779-.438 3.472-.438v42Zm45.622-20.327c2.462 0 3.919.761 4.418 1.192.181.156.448.427.73 1.09.301.711.788 2.284.788 5.158h42c0-15.794-5.65-29.051-16.087-38.053-9.857-8.502-21.868-11.387-31.849-11.387v42Zm5.936 7.44v24.429h42V81.208h-42Zm0 24.429c0 .542-.066 2.013-.315 3.843-.254 1.872-.592 3.312-.861 4.102-.128.373-.108.206.185-.301.253-.437 1.154-1.907 3.065-3.435 2.123-1.699 5.401-3.363 9.548-3.57 4.001-.199 6.939 1.05 8.406 1.894l-20.936 36.41c3.746 2.154 8.751 3.937 14.624 3.644 6.018-.3 10.974-2.685 14.597-5.583 6.317-5.055 9.06-11.978 10.26-15.495 2.711-7.945 3.427-16.92 3.427-21.509h-42Zm-6.473 34.3c-.036-.042.984 1.331 2.192 5.427 1.117 3.79 2.009 8.568 2.66 13.969 1.302 10.797 1.414 22.085 1.348 28.963l41.999.4c.071-7.478-.022-20.893-1.649-34.389-.813-6.745-2.065-14.01-4.072-20.817-1.916-6.501-4.998-14.277-10.412-20.677l-32.066 27.124Zm6.332 46.203c-.393 3.48-1.258 6.421-2.451 8.982l38.069 17.741c3.182-6.829 5.234-14.188 6.117-22.011l-41.735-4.712Zm-1.517 7.205-5.014 8.523 36.201 21.295 5.014-8.523-36.201-21.295Zm-2.322 4.903-6.837 7.383 30.818 28.535 6.837-7.383-30.818-28.535Zm-5.804 6.343c-7.746 7.275-19.792 13.045-34.048 16.929-14.012 3.817-28.347 5.317-38.855 5.317v42c13.92 0 31.991-1.917 49.894-6.794 17.659-4.811 37.038-13.01 51.761-26.837l-28.752-30.615Z" mask="url(#b)"/><mask id="c" fill="#fff"><path d="M103.687 70.999c-19.233 0-21.147 2.096-31.129 2.096-8.295 0-33.18-20.327-45.622-20.327C14.493 52.768 0 60.06 0 81.208v24.429c0 6.381 2.324 25.979 11.44 20.738C.684 139.091.137 174.139.273 188.496c.639 5.652 2.097 10.802 4.285 15.496l5.013 8.523 6.837 7.384c22.47 21.102 62.85 27.938 87.279 27.938"/></mask><path fill="#000" d="M103.687 70.999c-19.233 0-21.147 2.096-31.129 2.096-8.295 0-33.18-20.327-45.622-20.327C14.493 52.768 0 60.06 0 81.208v24.429c0 6.381 2.324 25.979 11.44 20.738C.684 139.091.137 174.139.273 188.496c.639 5.652 2.097 10.802 4.285 15.496l5.013 8.523 6.837 7.384c22.47 21.102 62.85 27.938 87.279 27.938"/><path fill="#000" d="m11.44 126.375 16.033 13.562L.972 108.17l10.468 18.205ZM.273 188.496l-20.999.2.01 1.081.122 1.075 20.867-2.356Zm4.285 15.496-19.035 8.871.425.911.51.866 18.1-10.648Zm5.013 8.523-18.1 10.648 1.15 1.955 1.541 1.665 15.41-14.268Zm6.837 7.384L.998 234.166l.499.538.535.502 14.376-15.307Zm87.279-169.9c-10.54 0-16.71.585-21.677 1.215-4.758.604-6.12.881-9.452.881v42c6.65 0 11.236-.77 14.74-1.215 3.293-.418 7.697-.881 16.389-.881v-42Zm-31.129 2.096c2.693 0 4.174.698 3.471.438-.367-.137-1.222-.503-2.72-1.276-3.119-1.61-6.7-3.74-11.517-6.518-4.414-2.545-9.742-5.554-14.989-7.928-4.673-2.114-12.018-5.043-19.867-5.043v42c-1.628 0-1.197-.388 2.555 1.31 3.178 1.437 6.923 3.51 11.322 6.046 3.997 2.305 8.97 5.255 13.239 7.458 2.195 1.133 4.742 2.354 7.372 3.33 2.295.85 6.368 2.183 11.134 2.183v-42ZM26.936 31.768c-9.98 0-21.992 2.885-31.85 11.387C-15.35 52.157-21 65.415-21 81.208h42c0-2.874.487-4.447.788-5.157.282-.664.55-.935.73-1.091.5-.431 1.956-1.192 4.418-1.192v-42ZM-21 81.208v24.429h42V81.208h-42Zm0 24.429c0 4.589.716 13.564 3.427 21.509 1.2 3.517 3.943 10.44 10.26 15.495 3.623 2.898 8.579 5.283 14.597 5.583 5.873.293 10.878-1.49 14.624-3.644L.972 108.17c1.467-.844 4.405-2.093 8.406-1.894 4.147.207 7.425 1.871 9.548 3.57 1.911 1.528 2.812 2.998 3.065 3.435.293.507.313.674.185.301-.27-.79-.607-2.23-.861-4.102-.249-1.83-.315-3.301-.315-3.843h-42Zm16.407 7.176c-5.414 6.4-8.496 14.176-10.412 20.677-2.007 6.807-3.26 14.072-4.072 20.817-1.627 13.496-1.72 26.911-1.649 34.389l41.998-.4c-.065-6.878.047-18.166 1.349-28.963.651-5.401 1.543-10.179 2.66-13.969 1.208-4.096 2.228-5.469 2.192-5.427l-32.066-27.124Zm-16.001 78.039c.883 7.823 2.935 15.182 6.117 22.011l38.07-17.741c-1.194-2.561-2.06-5.502-2.452-8.982l-41.735 4.712Zm7.051 23.788 5.014 8.523 36.2-21.295-5.013-8.523-36.2 21.295Zm7.705 12.143L1 234.166l30.818-28.535-6.837-7.383-30.818 28.535Zm7.87 8.423c14.723 13.827 34.102 22.026 51.761 26.837 17.903 4.877 35.974 6.794 49.894 6.794v-42c-10.508 0-24.843-1.5-38.855-5.317-14.256-3.884-26.302-9.654-34.048-16.929L2.032 235.206Z" mask="url(#c)"/></mask><g fill="#000" mask="url(#d)"><path d="M1.834 194.039a145.58 145.58 0 0 0 45.042 40.97 145.195 145.195 0 0 0 57.816 18.924c-10.49-15.823-25.735-30.38-44.769-41.463-19.033-11.082-39.19-17.136-58.09-18.431Z"/><path d="M85.5 168.341c-36.671-21.356-76.36-26.799-104.76-17.184a146.682 146.682 0 0 0 10.796 26.26c24.674-.572 51.614 6.146 76.682 20.741 25.067 14.596 44.24 34.74 55.972 56.516a146.54 146.54 0 0 0 28.121-3.61c-5.741-29.489-30.151-61.361-66.812-82.723Zm174.744-86.688a145.863 145.863 0 0 0-24.804-52.555A145.471 145.471 0 0 0 192.112-9.55a145.103 145.103 0 0 0-54.952-18.59 145.006 145.006 0 0 0-57.828 4.43c31.38 3.85 66.211 15.658 100.371 35.552s61.671 44.374 80.541 69.812Zm-45.657 69.721c-16.062-26.742-43.578-52.348-77.473-72.088-33.896-19.74-69.707-31.015-100.808-31.76-27.362-.65-47.898 7.323-56.328 21.871-.048.087-.115.168-.168.255a146.859 146.859 0 0 0-2.006 8.205c11.77-4.658 25.408-7.252 40.572-7.54 33.724-.637 71.464 10.176 106.291 30.46 34.826 20.284 62.913 47.805 79.062 77.478 7.239 13.368 11.756 26.53 13.547 39.104a138.981 138.981 0 0 0 6.11-5.803c.053-.092.087-.188.14-.284 8.429-14.562 5.17-36.391-8.939-59.899Z"/><path d="M111.326 123.78C59.419 93.55 2.06 88.814-25.524 109.911a145.47 145.47 0 0 0 1.508 19.73 114.049 114.049 0 0 1 24.933-4.629c30.823-2.324 64.805 6.285 95.643 24.254 30.838 17.969 55.147 43.31 68.405 71.284a113.755 113.755 0 0 1 8.334 24.004 145.773 145.773 0 0 0 17.853-8.455c4.618-34.475-27.905-82.083-79.826-112.319Zm129.96-17.165c-16.245-26.713-44-52.39-78.136-72.26C129.015 14.484 93.064 3.03 61.862 2.111c-23.786-.688-42.21 5.091-51.763 16.01 39.666-6.737 91.985 4.587 142.697 34.12 50.711 29.532 86.455 69.494 100.251 107.371 4.728-13.72.614-32.627-11.761-52.998Z"/></g></g><path fill="#000" d="M207.18 22.491 250 8.592l-26.466 36.39V0l13.233 18.195L250 36.39l-42.82-13.899Z"/><defs><clipPath id="a"><path fill="#fff" d="M0 52.768h207.375v195.07H0z"/></clipPath></defs></svg>