<svg xmlns="http://www.w3.org/2000/svg" width="578" height="573" fill="none"><g clip-path="url(#a)"><mask id="d" width="480" height="451" x="0" y="122" maskUnits="userSpaceOnUse" style="mask-type:alpha"><mask id="b" fill="#fff"><path d="M239.726 164.15c44.467 0 48.893 4.847 71.97 4.847 19.178 0 76.712-46.997 105.479-46.997 28.767 0 62.276 16.86 62.276 65.753v56.481c0 14.752-5.374 60.063-26.449 47.945 24.868 29.399 26.133 110.432 25.817 143.624-1.475 13.067-4.847 24.974-9.905 35.827l-11.591 19.705-15.807 17.071C389.567 557.194 296.206 573 239.726 573"/></mask><path fill="#fff" d="M239.726 164.15c44.467 0 48.893 4.847 71.97 4.847 19.178 0 76.712-46.997 105.479-46.997 28.767 0 62.276 16.86 62.276 65.753v56.481c0 14.752-5.374 60.063-26.449 47.945 24.868 29.399 26.133 110.432 25.817 143.624-1.475 13.067-4.847 24.974-9.905 35.827l-11.591 19.705-15.807 17.071C389.567 557.194 296.206 573 239.726 573"/><path fill="#fff" d="m453.002 292.179 10.468-18.205-26.501 31.767 16.033-13.562Zm25.817 143.624 20.867 2.356.122-1.074.01-1.082-20.999-.2Zm-9.905 35.827 18.1 10.648.51-.866.424-.911-19.034-8.871Zm-11.591 19.705 15.409 14.268 1.541-1.665 1.15-1.955-18.1-10.648Zm-15.807 17.071 14.377 15.308.534-.502.498-.539-15.409-14.267ZM239.726 185.15c21.309 0 32.649 1.15 41.363 2.256 8.921 1.132 17.409 2.591 30.607 2.591v-42c-9.879 0-15.143-.965-25.32-2.257-10.386-1.318-23.492-2.59-46.65-2.59v42Zm71.97 4.847c6.127 0 11.9-1.75 16.161-3.33 4.596-1.705 9.375-3.968 13.994-6.351 9.115-4.703 19.699-10.987 29.478-16.625 10.181-5.87 19.877-11.277 28.582-15.215 9.278-4.197 14.811-5.476 17.264-5.476v-42c-11.93 0-24.377 4.596-34.576 9.21-10.773 4.874-22.053 11.217-32.249 17.096-10.598 6.11-19.791 11.576-27.756 15.685-3.922 2.023-7.009 3.432-9.342 4.297-2.669.99-2.889.709-1.556.709v42ZM417.175 143c10.624 0 20.916 3.153 28.21 9.444 6.716 5.792 13.066 16.083 13.066 35.309h42c0-29.667-10.404-52.252-27.635-67.114C456.164 106.277 435.318 101 417.175 101v42Zm41.276 44.753v56.481h42v-56.481h-42Zm0 56.481c0 5.977-1.209 18.513-4.196 27.266-1.649 4.833-2.699 5.057-1.349 3.977 1.14-.912 3.318-2.102 6.236-2.248 2.773-.138 4.356.761 4.328.745l-20.936 36.41c5.241 3.013 11.602 5.147 18.703 4.793 7.246-.362 13.301-3.219 17.908-6.905 8.285-6.629 12.531-16.383 14.859-23.207 4.969-14.561 6.447-32.057 6.447-40.831h-42Zm-21.482 61.507c3.492 4.128 7.203 11.504 10.46 22.552 3.166 10.74 5.465 23.419 7.077 36.789 3.222 26.732 3.469 54.225 3.314 70.521l41.998.4c.161-16.896-.066-46.516-3.614-75.948-1.774-14.712-4.434-29.879-8.489-43.637-3.965-13.452-9.738-27.23-18.679-37.801l-32.067 27.124Zm20.982 127.706c-1.23 10.895-4.008 20.593-8.072 29.313l38.069 17.741c6.053-12.988 10.018-27.104 11.738-42.342l-41.735-4.712Zm-7.138 27.536-11.591 19.705 36.201 21.295 11.591-19.705-36.201-21.295Zm-8.899 16.085-15.807 17.07 30.818 28.535 15.807-17.07-30.818-28.535Zm-14.774 16.03c-22.486 21.118-55.147 36.052-90.339 45.639-34.949 9.52-70.542 13.263-97.075 13.263v42c29.946 0 69.274-4.16 108.114-14.74 38.595-10.513 78.59-27.876 108.053-55.546l-28.753-30.616Z" mask="url(#b)"/><mask id="c" fill="#fff"><path d="M239.725 164.15c-44.467 0-48.893 4.847-71.97 4.847-19.178 0-76.712-46.997-105.48-46.997C33.51 122 0 138.86 0 187.753v56.481c0 14.752 5.374 60.063 26.449 47.945C1.58 321.578.316 402.611.632 435.803c1.475 13.067 4.847 24.974 9.905 35.827l11.591 19.705 15.807 17.071C89.884 557.194 183.245 573 239.725 573"/></mask><path fill="#fff" d="M239.725 164.15c-44.467 0-48.893 4.847-71.97 4.847-19.178 0-76.712-46.997-105.48-46.997C33.51 122 0 138.86 0 187.753v56.481c0 14.752 5.374 60.063 26.449 47.945C1.58 321.578.316 402.611.632 435.803c1.475 13.067 4.847 24.974 9.905 35.827l11.591 19.705 15.807 17.071C89.884 557.194 183.245 573 239.725 573"/><path fill="#fff" d="m26.449 292.179 16.033 13.562-26.501-31.767 10.468 18.205ZM.632 435.803l-20.999.2.01 1.082.122 1.074 20.867-2.356Zm9.905 35.827-19.034 8.871.424.911.51.866 18.1-10.648Zm11.591 19.705-18.1 10.648 1.15 1.955 1.542 1.665 15.409-14.268Zm15.807 17.071-15.41 14.267.499.539.534.502 14.377-15.308Zm201.79-365.256c-23.157 0-36.264 1.272-46.65 2.59-10.177 1.292-15.441 2.257-25.32 2.257v42c13.198 0 21.686-1.459 30.607-2.591 8.714-1.106 20.054-2.256 41.363-2.256v-42Zm-71.97 4.847c1.333 0 1.113.281-1.556-.709-2.333-.865-5.42-2.274-9.342-4.297-7.965-4.109-17.158-9.575-27.756-15.685-10.196-5.879-21.475-12.222-32.249-17.096-10.2-4.614-22.645-9.21-34.576-9.21v42c2.453 0 7.986 1.279 17.264 5.476 8.705 3.938 18.401 9.345 28.582 15.215 9.779 5.638 20.363 11.922 29.478 16.625 4.619 2.383 9.398 4.646 13.994 6.351 4.261 1.58 10.034 3.33 16.161 3.33v-42ZM62.275 101c-18.142 0-38.988 5.277-55.64 19.639C-10.596 135.501-21 158.086-21 187.753h42c0-19.226 6.35-29.517 13.066-35.309C41.36 146.153 51.652 143 62.276 143v-42ZM-21 187.753v56.481h42v-56.481h-42Zm0 56.481c0 8.774 1.478 26.27 6.447 40.831 2.328 6.824 6.574 16.578 14.859 23.207 4.607 3.686 10.662 6.543 17.908 6.905 7.101.354 13.462-1.78 18.703-4.793l-20.936-36.41c-.028.016 1.555-.883 4.328-.745 2.918.146 5.096 1.336 6.236 2.248 1.35 1.08.3.856-1.349-3.977C22.21 262.747 21 250.211 21 244.234h-42Zm31.416 34.383C1.474 289.188-4.3 302.966-8.264 316.418c-4.055 13.758-6.715 28.925-8.489 43.637-3.547 29.432-3.775 59.052-3.614 75.948l41.998-.4c-.155-16.296.092-43.789 3.314-70.521 1.612-13.37 3.912-26.049 7.077-36.789 3.257-11.048 6.968-18.424 10.46-22.552l-32.066-27.124Zm-30.651 159.542c1.72 15.238 5.685 29.354 11.738 42.342l38.069-17.741c-4.064-8.72-6.842-18.418-8.072-29.313l-41.735 4.712Zm12.672 44.119 11.59 19.705 36.202-21.295-11.591-19.705-36.201 21.295ZM6.72 505.603l15.806 17.07 30.818-28.535-15.806-17.07L6.72 505.603Zm16.838 18.111c29.463 27.67 69.458 45.033 108.054 55.546C170.451 589.84 209.779 594 239.725 594v-42c-26.533 0-62.126-3.743-97.075-13.263-35.192-9.587-67.853-24.521-90.34-45.639l-28.752 30.616Z" mask="url(#c)"/></mask><g fill="#fff" mask="url(#d)"><path d="M4.24 448.62a336.6 336.6 0 0 0 104.138 94.721 335.724 335.724 0 0 0 133.67 43.753c-24.25-36.583-59.499-70.239-103.505-95.862-44.005-25.623-90.608-39.62-134.303-42.612Z"/><path d="M197.675 389.206c-84.781-49.377-176.544-61.961-242.203-39.731a339.139 339.139 0 0 0 24.961 60.715c57.046-1.324 119.331 14.207 177.287 47.953 57.957 33.745 102.284 80.318 129.409 130.663a338.811 338.811 0 0 0 65.015-8.344c-13.274-68.18-69.71-141.868-154.469-191.256Zm404.01-200.423a337.267 337.267 0 0 0-57.347-121.507 336.325 336.325 0 0 0-100.173-89.357 335.492 335.492 0 0 0-127.05-42.98 335.249 335.249 0 0 0-133.699 10.24c72.551 8.9 153.081 36.204 232.058 82.199S558.057 129.97 601.685 188.783ZM496.127 349.978c-37.136-61.827-100.752-121.029-179.119-166.668-78.366-45.638-161.161-71.707-233.068-73.431-63.261-1.502-110.74 16.934-130.23 50.568-.11.2-.266.389-.388.589-1.754 6.309-3.263 12.628-4.64 18.97 27.214-10.77 58.745-16.767 93.805-17.434 77.967-1.469 165.223 23.531 245.743 70.427 80.519 46.896 145.457 110.526 182.792 179.129 16.737 30.908 27.18 61.337 31.32 90.409 4.817-4.317 9.545-8.778 14.128-13.418.122-.211.2-.434.322-.656 19.489-33.667 11.953-84.135-20.665-138.485Z"/><path d="M257.386 286.18C137.378 216.287 4.763 205.339-59.009 254.115a336.458 336.458 0 0 0 3.485 45.617A263.595 263.595 0 0 1 2.12 289.028c71.264-5.373 149.83 14.531 221.127 56.075 71.296 41.545 127.499 100.134 158.153 164.81a263.05 263.05 0 0 1 19.267 55.496 336.87 336.87 0 0 0 41.275-19.548c10.677-79.707-64.515-189.776-184.557-259.681Zm300.468-39.685c-37.557-61.76-101.729-121.128-180.65-167.068C298.282 33.488 215.166 7.008 143.026 4.883 88.033 3.293 45.436 16.655 23.351 41.9c91.706-15.577 212.669 10.603 329.913 78.883 117.245 68.28 199.884 160.67 231.781 248.243 10.932-31.72 1.421-75.434-27.191-122.531Z"/></g></g><path fill="#fff" d="m479 52 99-32.135L516.811 104V0l30.594 42.067L578 84.135 479 52Z"/><defs><clipPath id="a"><path fill="#fff" d="M0 122h479.451v451H0z"/></clipPath></defs></svg>